<svg xmlns="http://www.w3.org/2000/svg" version="1.1" xmlns:xlink="http://www.w3.org/1999/xlink"  width="750" height="615" viewBox="0 0 507.3364379882812 312" class="svg-animations " style="background: rgb(0, 0, 0);"><svg viewBox="0 0 129.99960327148438 135" width="75" height="75" x="216.1682189941406" y="91.78155326843262" style="fill: rgb(255, 255, 255);"><svg width="131" height="130" viewBox="0 0 131 130" xmlns="http://www.w3.org/2000/svg">
<path d="M112.775 60.1249C128.415 41.0314 115.213 19.2964 93.8844 27.0168C85.9629 21.1266 76.2134 17.6741 65.6504 17.6741C55.6979 17.6741 46.1511 20.7208 38.2279 26.6111L34.7744 23.1576C33.9618 22.345 32.7433 22.345 31.9307 23.1576C31.1181 23.9702 31.1181 25.1887 31.9307 26.0013L49.1959 43.2666L45.5404 46.7201L28.2751 29.4548C27.4625 28.6422 26.244 28.6422 25.4314 29.4548C24.6188 30.2674 24.6188 31.4859 25.4314 32.2986L42.6967 49.5638L39.0404 53.2201L21.7752 35.9548C20.9625 35.1422 19.744 35.1422 18.9314 35.9548C18.1188 36.7674 18.1188 37.9859 18.9314 38.7986L36.1967 56.0638L32.7432 59.5173C32.5403 59.3144 23.1964 49.9706 23.8062 50.5803C20.7594 47.5335 15.0721 41.8463 15.4779 42.2521C14.6653 41.4394 13.4468 41.4394 12.6342 42.2521C11.8215 43.0647 11.8215 44.2832 12.6342 45.0958L20.1499 52.6115C15.6809 69.471 20.9625 86.737 32.3374 98.3141C28.0724 109.282 39.2434 116.798 47.3687 111.72C48.9939 110.705 49.6027 109.892 50.0094 109.486C61.1814 113.548 74.1809 113.345 85.758 107.861C87.3832 109.282 89.4142 113.345 94.492 113.345C101.601 113.345 105.664 105.017 100.992 99.5335C100.789 99.1277 100.382 98.9238 100.179 98.518L99.5696 98.1121C108.913 88.3597 114.195 74.3449 112.773 60.1252L112.775 60.1249ZM96.3221 95.2654L78.2441 78.8126L85.5569 71.0941C93.4784 73.3281 102.619 69.8757 108.915 64.3911C109.118 75.3592 104.853 86.7339 96.3221 95.2654ZM97.3377 108.062C95.7124 109.687 92.6657 109.687 91.0405 107.859C82.7122 98.7178 51.4329 64.5933 52.0409 65.2037C53.0565 64.3911 53.8691 63.5784 54.6817 62.563C101.399 105.218 97.5402 101.562 98.1483 102.577C99.1648 104.406 98.7589 106.843 97.3366 108.062L97.3377 108.062ZM52.8537 106.234L68.4937 89.374C86.9775 109.483 81.087 103.186 82.5094 104.811C73.7745 108.671 63.0092 109.483 52.8534 106.233L52.8537 106.234ZM46.3537 107.249C44.5255 109.28 41.6817 109.687 39.2449 108.874C34.9799 107.249 33.7604 101.562 37.4167 98.3121L58.7443 78.6088C58.9472 78.8117 66.26 86.9371 65.853 86.3273L46.7595 106.842L46.3537 107.249ZM23.4009 56.062L31.3224 63.7805C35.9944 68.4525 42.9002 69.468 48.5877 67.0301L56.1034 75.1546L34.9789 94.8578C25.2292 85.5141 20.3544 70.6863 23.4012 56.0618L23.4009 56.062ZM35.5884 62.3583L51.6352 46.3116C59.15 56.8748 45.9467 69.6711 35.5884 62.3583ZM85.5569 66.8273C84.7443 66.6244 83.9317 66.8273 83.3229 67.437L75.1984 76.171L71.5421 72.7175L68.2926 69.6708L77.4336 61.1395C78.0433 60.5298 78.2462 59.7181 78.0433 59.1084C72.5588 41.8432 99.1678 20.7194 111.762 33.3114C123.947 45.4989 103.432 73.1225 85.5579 66.8265L85.5569 66.8273ZM65.6509 21.7352C73.7754 21.7352 82.1037 23.9693 89.4162 28.844C78.6509 34.7343 70.9324 47.5315 73.7761 58.9046L65.2449 66.8261L56.7136 58.9046C59.3544 53.0143 57.7292 45.9044 53.4641 41.6393L41.0736 29.2488C48.3854 24.375 56.7136 21.734 65.6497 21.734L65.6509 21.7352Z"></path>
<path d="M65.6504 0C29.9018 0 0.650391 29.249 0.650391 65C0.650391 100.751 29.8994 130 65.6504 130C101.401 130 130.65 100.751 130.65 65C130.65 29.249 101.401 0 65.6504 0ZM65.6504 125.935C32.1354 125.935 4.71289 98.5126 4.71289 64.9976C4.71289 31.4826 32.1354 4.06011 65.6504 4.06011C99.1654 4.06011 126.588 31.4826 126.588 64.9976C126.588 98.5126 99.1654 125.935 65.6504 125.935Z"></path>
</svg></svg><text fill="#e89c9c" font-family="Permanent Marker" font-size="32px" x="42.278036499023415" y="202.12135887145996"><tspan dy="0" x="42.278036499023415">Deliciosa Cozinha Clássica</tspan></text><text fill="#ffffff" font-family="Overpass" font-size="16px" x="253.6682189941406" y="220.21844673156738"><tspan dy="0" x="253.6682189941406"></tspan></text><defs><style type="text/css">
     
      </style></defs></svg>